<?xml version="1.0" standalone="no"?>
<!DOCTYPE svg PUBLIC "-//W3C//DTD SVG 20010904//EN"
 "http://www.w3.org/TR/2001/REC-SVG-20010904/DTD/svg10.dtd">
<svg version="1.0" xmlns="http://www.w3.org/2000/svg"
 width="575.000000pt" height="575.000000pt" viewBox="0 0 575.000000 575.000000"
 preserveAspectRatio="xMidYMid meet">
<metadata>
Created by potrace 1.14, written by Peter Selinger 2001-2017
</metadata>
<g transform="translate(0.000000,575.000000) scale(0.100000,-0.100000)"
fill="#000000" stroke="none">
<path d="M3060 5314 c113 -113 238 -231 279 -262 86 -65 103 -82 171 -163 36
-43 50 -55 50 -40 0 48 -255 319 -560 595 -56 51 -96 76 -121 76 -19 0 18 -42
181 -206z"/>
<path d="M3010 5511 c0 -5 111 -121 246 -258 136 -136 267 -272 292 -301 43
-50 45 -55 48 -125 1 -51 10 -93 28 -137 14 -35 26 -67 26 -71 0 -4 5 -20 10
-34 10 -26 10 -26 106 71 l96 96 -1 59 c0 49 -5 67 -28 99 -15 22 -138 149
-273 283 -245 243 -245 243 -314 265 -38 12 -71 20 -73 19 -1 -2 121 -127 273
-278 151 -151 282 -289 290 -306 8 -18 19 -33 24 -33 5 0 16 -12 24 -28 12
-23 12 -32 1 -59 -24 -57 -96 -56 -120 0 -11 27 -11 36 1 59 8 16 19 28 25 28
6 0 9 7 7 15 -6 26 -611 625 -638 631 -14 3 -31 7 -37 10 -7 2 -13 -1 -13 -5z"/>
<path d="M2684 5502 c-57 -7 -132 -26 -154 -38 l-25 -13 32 -1 c25 0 39 -9 70
-47 37 -45 38 -48 41 -140 l4 -93 26 6 c15 3 42 10 59 14 53 13 272 4 333 -13
30 -9 66 -20 79 -23 14 -4 -46 62 -155 171 l-178 178 -56 1 c-31 1 -65 0 -76
-2z"/>
<path d="M2389 5407 c-42 -11 -75 -33 -57 -38 7 -2 43 -4 80 -4 38 0 68 -3 68
-7 0 -4 9 -10 20 -13 33 -10 50 -34 50 -69 0 -38 -14 -53 -57 -62 -40 -8 -74
24 -71 64 3 45 -5 49 -99 48 -76 -1 -92 -5 -120 -26 -18 -13 -31 -26 -28 -29
3 -2 38 -4 78 -4 82 1 95 -4 157 -64 28 -26 54 -43 69 -43 14 0 33 -8 43 -17
17 -16 22 -16 46 -3 28 16 37 44 45 138 4 49 2 55 -33 95 -36 40 -40 42 -98
42 -32 0 -74 -3 -93 -8z"/>
<path d="M3485 5330 c55 -63 355 -357 355 -348 0 14 -118 159 -176 215 -84 81
-226 187 -179 133z"/>
<path d="M2177 5233 c-1 -1 -14 -4 -29 -7 -14 -2 -35 -9 -45 -14 -18 -11 -83
-77 -97 -100 -5 -9 28 -49 102 -122 98 -99 132 -125 132 -102 0 4 12 21 28 37
15 17 32 40 38 50 6 11 22 25 36 32 13 7 37 24 52 38 22 20 25 29 16 39 -7 9
-7 17 -1 20 29 18 -40 96 -103 116 -33 11 -123 20 -129 13z"/>
<path d="M2761 5073 c-46 -7 -90 -18 -98 -24 -8 -8 -13 -35 -13 -78 0 -73 -2
-77 -45 -110 -24 -18 -30 -31 -31 -62 0 -47 -27 -79 -63 -77 -77 5 -90 101
-17 128 69 25 95 43 105 73 13 36 14 94 2 101 -23 15 -234 -146 -277 -212 -15
-23 -12 -26 108 -148 68 -68 125 -124 128 -124 3 0 14 13 23 29 27 46 90 106
136 128 l41 20 -39 7 c-34 5 -41 11 -51 41 -10 29 -9 38 7 59 47 64 140 22
120 -54 -7 -28 13 -40 63 -36 25 2 58 -1 75 -6 16 -5 57 -11 90 -14 83 -6 445
-7 451 -1 3 2 0 15 -6 29 -9 19 -17 23 -43 20 -23 -2 -39 3 -55 19 -21 18 -23
28 -17 65 6 43 6 43 -51 87 -107 84 -261 143 -394 150 -36 2 -103 -3 -149 -10z
m407 -159 c12 -4 29 -19 37 -35 19 -35 4 -74 -34 -94 -22 -11 -30 -11 -54 3
-47 28 -49 98 -5 120 28 13 28 13 56 6z"/>
<path d="M1949 5037 c-17 -23 -38 -56 -46 -73 l-15 -30 118 -116 118 -116 38
69 c21 39 38 74 38 78 0 5 -50 59 -110 119 l-110 111 -31 -42z"/>
<path d="M1845 4856 c-13 -30 -32 -78 -41 -106 l-17 -52 136 -136 c75 -75 138
-134 140 -132 3 3 7 30 11 60 3 30 14 85 23 122 l17 68 -104 105 c-58 59 -113
111 -123 116 -15 9 -21 2 -42 -45z"/>
<path d="M3900 4825 c-4 -84 -6 -105 -11 -107 -2 -2 -52 -49 -110 -105 -81
-79 -105 -107 -102 -125 2 -12 6 -24 9 -27 2 -3 63 53 135 124 144 144 141
138 100 228 -19 42 -19 42 -21 12z"/>
<path d="M2251 4690 c-18 -39 -31 -75 -29 -80 2 -5 57 -64 123 -131 92 -93
127 -122 153 -126 31 -6 32 -5 33 33 1 40 3 60 13 100 5 18 -17 45 -120 148
-69 69 -130 126 -134 126 -4 0 -22 -32 -39 -70z"/>
<path d="M3818 4552 c-126 -128 -155 -170 -129 -186 4 -3 69 57 144 133 128
129 155 169 129 185 -5 3 -69 -57 -144 -132z"/>
<path d="M3288 4670 l-197 -5 35 -40 c38 -44 84 -133 84 -163 0 -11 6 -22 14
-25 19 -8 320 -2 332 6 6 3 9 20 6 37 l-4 31 -27 -25 c-32 -31 -66 -28 -98 9
-24 27 -23 57 3 86 21 23 67 25 88 3 9 -8 16 -11 16 -5 0 21 -32 90 -43 93 -7
2 -101 1 -209 -2z"/>
<path d="M1779 4665 c0 -6 -2 -19 -4 -30 -3 -15 33 -57 138 -162 78 -79 145
-143 148 -143 4 0 5 14 4 31 -2 26 -29 58 -144 173 -78 77 -141 136 -142 131z"/>
<path d="M3827 4463 c-81 -80 -147 -152 -147 -160 0 -26 76 33 210 164 86 83
113 124 91 137 -4 3 -73 -61 -154 -141z"/>
<path d="M1765 4580 c-6 -10 -17 -127 -16 -169 1 -20 8 -39 19 -46 9 -7 55
-51 102 -97 47 -46 96 -92 110 -100 25 -17 104 -27 115 -16 4 3 2 23 -4 44 -6
22 -12 50 -14 62 -4 25 -304 334 -312 322z"/>
<path d="M2207 4573 c-11 -18 -19 -77 -22 -162 -4 -133 -21 -123 181 -119 107
2 174 7 175 13 0 5 -13 13 -29 16 -45 9 -87 43 -198 157 -56 57 -104 100 -107
95z"/>
<path d="M3855 4396 c-88 -87 -134 -126 -153 -128 -19 -2 -28 -10 -30 -25 -3
-21 1 -23 36 -23 36 0 47 8 162 123 93 92 125 129 126 150 1 15 -2 27 -6 27
-4 0 -65 -56 -135 -124z"/>
<path d="M3244 4412 c-31 -4 -39 -41 -11 -51 12 -5 88 -8 170 -7 115 1 150 4
156 15 16 24 0 41 -38 42 -160 3 -259 4 -277 1z"/>
<path d="M3873 4310 c-112 -110 -113 -110 -162 -110 -35 0 -51 -4 -55 -16 -11
-29 -6 -34 40 -34 37 0 57 8 107 42 34 23 82 60 106 82 68 63 116 147 83 146
-4 0 -58 -50 -119 -110z"/>
<path d="M1744 4339 c3 -8 7 -39 10 -69 6 -68 25 -160 34 -161 4 0 16 -2 27
-5 50 -11 294 -13 300 -3 13 20 -14 27 -113 28 -27 1 -47 15 -125 94 -113 112
-140 136 -133 116z"/>
<path d="M3885 4230 l-100 -100 -65 0 c-36 0 -71 -4 -79 -9 -28 -18 0 -27 80
-25 l81 2 99 98 c86 85 119 134 91 134 -4 0 -52 -45 -107 -100z"/>
<path d="M3210 4310 c-27 -17 10 -21 180 -18 120 2 164 6 168 16 3 9 -34 12
-165 12 -92 0 -175 -4 -183 -10z"/>
<path d="M2235 4273 c-43 -8 -46 -12 -35 -33 11 -20 19 -21 185 -20 168 2 206
8 168 29 -27 14 -270 32 -318 24z"/>
<path d="M3195 4253 c-8 -8 -13 -18 -10 -23 3 -5 85 -8 183 -7 176 2 177 2
180 25 l3 23 -170 -1 c-138 -1 -174 -5 -186 -17z"/>
<path d="M3903 4158 l-82 -81 -90 -3 c-101 -3 -127 -13 -142 -51 -8 -21 -6
-30 12 -49 18 -19 23 -37 24 -91 3 -92 3 -93 19 -93 19 0 34 -21 41 -58 13
-76 -98 -101 -136 -31 -14 27 6 78 35 89 19 7 21 15 20 79 -1 54 -5 77 -18 89
-11 11 -19 13 -24 7 -4 -6 -23 -33 -42 -60 -33 -48 -35 -55 -37 -144 -3 -138
15 -164 110 -155 112 10 117 16 118 148 1 100 2 117 14 164 3 13 61 80 128
149 126 129 141 147 135 163 -2 6 -40 -27 -85 -72z"/>
<path d="M2216 4178 c3 -13 8 -24 9 -26 5 -5 387 -3 393 2 3 3 -3 15 -13 26
-17 19 -31 20 -207 20 l-189 0 7 -22z"/>
<path d="M3145 4180 c-10 -11 -15 -23 -12 -26 11 -11 366 -5 387 6 11 6 20 17
20 25 0 11 -35 14 -188 15 -178 1 -189 0 -207 -20z"/>
<path d="M3863 4046 c-55 -56 -104 -116 -110 -132 -5 -16 -10 -84 -11 -152
l-1 -124 -33 -28 c-29 -26 -39 -28 -93 -26 -76 4 -116 13 -136 32 -23 21 -29
18 -29 -14 0 -48 24 -59 125 -57 111 2 158 10 178 33 23 25 36 93 40 207 3 99
25 175 49 175 25 0 110 100 123 144 8 25 10 46 6 46 -5 0 -53 -47 -108 -104z"/>
<path d="M3317 4133 c-1 0 -33 -4 -71 -7 -102 -9 -166 -18 -170 -25 -5 -8 385
-5 420 3 21 6 24 10 15 19 -8 8 -46 12 -102 12 -50 0 -91 -1 -92 -2z"/>
<path d="M2245 4119 c-4 -6 -5 -13 -2 -16 8 -7 397 -10 427 -3 20 5 22 8 10
15 -22 14 -427 18 -435 4z"/>
<path d="M1796 4071 c-3 -4 -1 -13 4 -21 7 -12 41 -15 169 -16 165 -1 200 5
163 25 -24 13 -329 24 -336 12z"/>
<path d="M2270 4060 c0 -10 9 -19 23 -22 40 -8 1161 -2 1180 6 20 9 22 22 5
28 -27 10 -466 0 -518 -12 -52 -11 -136 -14 -150 -5 -18 11 -114 17 -317 20
-207 2 -223 1 -223 -15z"/>
<path d="M1833 4012 c-16 -2 -20 -8 -16 -20 4 -9 11 -20 16 -23 5 -3 84 -7
177 -8 142 -2 168 0 173 13 7 19 2 22 -46 31 -39 8 -264 13 -304 7z"/>
<path d="M2330 4010 l-35 -5 22 -22 22 -22 541 2 c522 2 542 3 556 21 7 11 12
21 10 24 -6 6 -1075 8 -1116 2z"/>
<path d="M3890 3961 c-53 -55 -70 -84 -70 -120 0 -47 15 -72 23 -39 4 12 7 34
7 48 0 14 10 36 23 50 55 62 71 116 17 61z"/>
<path d="M1846 3931 c-3 -5 0 -11 7 -14 12 -4 228 -11 321 -9 43 1 57 9 36 22
-19 12 -357 13 -364 1z"/>
<path d="M2360 3930 c0 -5 6 -11 13 -11 6 -1 23 -3 37 -5 14 -2 216 -3 450 -3
234 0 440 0 458 -1 42 -1 74 9 67 20 -8 13 -1025 13 -1025 0z"/>
<path d="M1870 3880 c0 -23 49 -30 237 -35 151 -4 180 2 154 28 -14 14 -391
21 -391 7z"/>
<path d="M2405 3879 c-15 -24 52 -30 355 -33 l276 -2 46 -50 47 -49 63 32 c71
37 153 99 141 106 -14 9 -923 5 -928 -4z"/>
<path d="M1905 3820 c-2 -4 2 -15 9 -26 13 -18 28 -19 216 -19 153 0 204 3
207 12 9 25 -54 35 -240 37 -103 2 -190 0 -192 -4z"/>
<path d="M2498 3819 c-7 -4 2 -14 23 -25 28 -14 65 -17 219 -19 214 -2 266 -9
280 -36 12 -21 59 -23 67 -3 8 22 -65 84 -100 85 -149 5 -480 4 -489 -2z"/>
<path d="M3393 3768 c-6 -7 -13 -30 -17 -50 -9 -48 -34 -62 -97 -54 -26 4 -50
3 -53 -2 -3 -5 32 -45 77 -90 l82 -82 180 1 c186 1 195 3 195 44 0 11 -4 16
-8 10 -10 -14 -23 -16 -157 -22 l-120 -5 -28 30 c-27 28 -29 35 -31 125 -2 99
-6 116 -23 95z"/>
<path d="M2955 3741 c-6 -11 21 -34 35 -29 6 2 2 11 -9 20 -11 10 -23 13 -26
9z"/>
<path d="M1967 3712 c-14 -3 -17 -9 -13 -25 4 -12 9 -34 12 -49 4 -16 14 -28
23 -29 29 -1 534 -1 596 1 52 1 57 3 35 12 -14 6 -58 26 -98 44 -62 29 -87 34
-180 40 -127 7 -349 11 -375 6z"/>
<path d="M2827 3703 c18 -2 50 -2 70 0 21 2 7 4 -32 4 -38 0 -55 -2 -38 -4z"/>
<path d="M3144 3626 c-3 -8 34 -53 92 -110 l96 -97 205 1 c170 1 205 4 210 16
3 8 4 17 1 19 -2 2 -73 5 -158 5 -85 1 -172 6 -192 11 -25 6 -66 36 -123 89
-83 77 -120 95 -131 66z"/>
<path d="M3080 3604 c0 -3 30 -36 68 -74 37 -37 84 -86 105 -109 33 -36 67
-54 67 -35 0 4 -49 56 -109 115 -97 97 -131 123 -131 103z"/>
<path d="M2978 3592 c-21 -2 -38 -7 -38 -11 0 -4 36 -44 81 -89 67 -68 86 -82
112 -82 38 0 50 -7 66 -38 28 -53 -34 -115 -92 -93 -30 12 -51 54 -43 86 4 16
-15 41 -87 113 l-92 92 -446 -1 -446 0 1 -145 c1 -79 2 -144 3 -144 2 0 51 47
109 105 79 78 112 105 132 106 139 5 217 -2 256 -21 22 -11 91 -69 152 -129
61 -60 123 -116 138 -126 18 -12 51 -18 109 -20 45 -2 102 -6 127 -9 33 -5 54
-2 78 11 31 17 33 17 67 -1 21 -11 35 -27 35 -38 0 -18 7 -23 122 -88 121 -68
259 -224 331 -375 16 -33 36 -68 44 -77 26 -29 31 -168 20 -562 l-5 -178 83
-85 c47 -48 88 -82 94 -78 6 3 21 25 32 47 l21 41 -67 67 -67 68 -3 583 c-1
411 -6 594 -14 619 -6 19 -14 49 -17 65 -3 17 -9 48 -14 69 -5 22 -7 43 -4 47
2 4 -3 13 -12 20 -11 9 -72 13 -236 14 l-220 1 -123 121 c-67 66 -128 119
-136 119 -8 -1 -31 -2 -51 -4z"/>
<path d="M2234 3449 c-10 -4 -72 -61 -136 -126 -85 -85 -121 -130 -132 -160
-8 -23 -12 -44 -8 -46 21 -11 124 -7 149 6 41 22 216 204 208 217 -11 18 15
68 38 74 46 12 60 3 181 -119 115 -117 126 -125 152 -119 16 4 34 7 41 7 7 0
13 2 13 4 0 11 -236 236 -262 249 -33 17 -209 27 -244 13z"/>
<path d="M2429 3300 c-17 -10 -50 -18 -80 -19 -9 -1 -63 -48 -121 -105 l-104
-104 -89 -1 c-87 -1 -127 -14 -112 -39 4 -5 75 -9 159 -10 l153 -1 47 46 c41
41 45 48 37 71 -14 36 6 78 41 90 69 25 128 -75 69 -117 -17 -12 -27 -41 -14
-41 3 0 38 16 78 36 39 21 83 40 97 44 24 6 22 9 -52 83 -42 42 -80 77 -85 77
-4 0 -15 -5 -24 -10z"/>
<path d="M2300 3045 l-44 -45 -172 0 -173 0 -55 -83 c-31 -45 -69 -97 -85
-115 -16 -17 -26 -34 -22 -36 10 -6 378 -2 383 4 2 3 21 31 43 63 21 32 79 96
128 142 64 59 88 88 84 99 -11 28 -41 18 -87 -29z"/>
<path d="M2765 3072 c-2 -3 134 -143 303 -313 169 -169 325 -326 347 -349 l40
-40 1 -236 c1 -129 4 -237 7 -240 2 -3 15 12 28 33 22 36 23 45 23 228 -1 270
12 249 -369 630 -292 292 -296 295 -340 293 -19 -1 -37 -3 -40 -6z"/>
<path d="M2920 3075 c0 -3 117 -124 259 -268 309 -312 314 -317 348 -385 25
-50 26 -64 29 -205 1 -84 3 -154 4 -157 1 -3 10 22 21 55 42 128 44 321 3 441
-36 108 -58 139 -199 282 -119 122 -150 148 -210 176 -38 19 -90 38 -115 44
-64 15 -140 25 -140 17z"/>
<path d="M2657 3050 c-45 -14 -187 -82 -187 -91 0 -4 150 -158 333 -342 419
-421 511 -519 544 -575 26 -44 30 -70 32 -212 1 -40 17 -31 26 15 3 17 8 137
11 268 l5 237 -355 355 c-195 195 -361 355 -368 354 -7 0 -26 -5 -41 -9z"/>
<path d="M3837 2993 c-8 -13 -2 -992 6 -1020 9 -35 20 -51 66 -99 53 -53 71
-56 61 -9 -5 24 0 379 6 410 3 19 22 52 41 72 20 21 46 61 60 90 26 56 41 170
29 219 -11 41 -114 135 -141 128 -29 -7 -71 11 -85 36 -8 15 -8 30 0 58 10 33
9 42 -13 80 -14 24 -27 40 -30 35z m178 -471 c14 -36 14 -58 -3 -79 -31 -41
-99 -34 -120 11 -13 30 10 84 40 95 28 10 74 -5 83 -27z"/>
<path d="M2349 2860 c-44 -43 -79 -85 -79 -93 0 -34 119 -132 148 -123 25 8
70 -12 77 -35 15 -47 13 -59 -16 -84 -34 -28 -42 -30 -72 -13 -32 16 -46 39
-47 71 0 21 -15 44 -52 83 -56 57 -72 64 -82 37 -5 -11 1 -23 16 -35 13 -10
26 -18 29 -18 10 0 38 -72 41 -104 4 -42 67 -91 114 -88 57 4 99 -60 69 -107
-13 -22 -60 -39 -82 -30 -29 11 -55 51 -51 82 2 18 -7 32 -42 58 -37 29 -45
41 -48 74 -4 46 -27 94 -48 102 -21 8 -39 -12 -53 -58 -13 -44 -16 -56 -30
-125 -9 -47 -8 -205 3 -249 5 -22 86 -109 289 -313 l283 -282 60 -7 c107 -11
257 -2 269 18 4 5 -1 19 -9 31 -21 29 -20 93 0 128 34 56 97 74 158 45 32 -16
66 -60 66 -88 0 -28 16 -27 52 3 l35 29 -3 113 c-2 62 -4 119 -5 125 -6 35
-162 205 -507 551 -211 210 -388 382 -394 382 -6 0 -46 -36 -89 -80z m118 -38
c19 -3 44 -58 36 -79 -11 -29 -44 -53 -72 -53 -59 1 -89 65 -52 111 19 25 33
28 88 21z m585 -772 c24 -18 27 -32 20 -87 -3 -18 -53 -40 -80 -35 -51 8 -72
91 -31 123 31 24 60 24 91 -1z"/>
<path d="M1777 2724 c-1 -1 -24 -4 -52 -7 -56 -6 -85 -15 -85 -27 0 -15 25
-16 234 -15 191 1 209 3 222 20 8 10 12 21 9 23 -5 5 -323 10 -328 6z"/>
<path d="M4138 2649 c-2 -8 -5 -55 -6 -105 -1 -50 -5 -100 -9 -111 -5 -12 -32
-46 -60 -77 -29 -32 -53 -62 -54 -69 0 -7 -2 -21 -5 -32 -4 -19 -7 -204 -5
-320 l1 -49 22 22 c21 21 23 32 25 170 3 191 6 205 57 261 24 25 46 55 50 66
10 27 8 207 -2 235 -6 16 -10 19 -14 9z"/>
<path d="M1697 2634 c-1 -1 -32 -4 -69 -7 -49 -4 -87 -15 -142 -41 -42 -20
-75 -40 -75 -44 5 -33 -33 -72 -71 -72 -15 0 -35 9 -45 20 -17 19 -65 28 -65
13 0 -5 152 -160 338 -347 215 -216 319 -327 287 -305 -27 18 -178 160 -335
315 -303 300 -340 334 -361 334 -20 0 692 -713 720 -722 14 -4 83 -8 155 -9
71 0 141 -5 155 -10 43 -17 175 -149 187 -188 7 -21 12 -128 13 -256 1 -121 6
-224 11 -229 22 -23 30 43 30 261 l1 228 -115 113 -116 112 -92 1 c-134 2
-178 5 -188 15 -5 5 43 8 114 8 68 -1 128 1 134 5 6 3 -6 31 -29 69 -41 69
-79 164 -102 254 -13 49 -24 66 -83 123 -102 100 -169 155 -189 155 -10 0 -28
-11 -41 -25 -31 -34 -76 -33 -103 1 -24 30 -25 43 -10 77 15 34 59 48 93 30
15 -8 48 -15 74 -16 50 -1 59 -7 178 -125 30 -30 54 -52 55 -50 4 19 7 45 13
111 4 43 15 105 25 138 11 34 15 62 10 65 -8 5 -357 3 -362 -2z"/>
<path d="M4198 2615 c-5 -8 -11 -122 -9 -189 0 -23 -13 -42 -70 -103 l-44 -47
-3 -158 c-3 -137 -2 -157 11 -152 21 8 24 27 26 161 l2 118 57 57 56 58 2 92
c2 89 -15 184 -28 163z"/>
<path d="M4249 2578 c0 -7 -1 -61 -2 -120 l-2 -107 -52 -53 -53 -54 0 -112 c0
-68 4 -112 10 -112 6 0 10 17 11 38 3 156 3 157 46 206 49 55 70 98 82 163 8
41 8 66 2 130 -2 18 -41 37 -42 21z"/>
<path d="M4309 2508 c0 -29 -1 -83 -3 -119 l-2 -66 -59 -59 -59 -59 -1 -73
c-2 -75 7 -95 30 -71 11 12 17 39 24 110 1 4 21 28 44 54 24 26 52 70 62 99
25 67 26 173 2 209 -26 40 -37 33 -38 -25z"/>
<path d="M4390 2513 c-1 -10 -1 -57 -1 -104 -1 -99 -7 -115 -72 -182 -26 -26
-47 -51 -48 -55 -7 -46 -5 -72 6 -72 30 0 46 14 64 55 21 48 61 75 112 75 32
0 99 -34 99 -51 0 -10 73 -13 82 -3 3 3 -42 53 -101 110 l-106 105 -5 66 c-3
41 -10 68 -17 71 -7 2 -13 -5 -13 -15z"/>
<path d="M4446 2504 c-3 -9 -6 -34 -6 -56 0 -37 7 -46 113 -152 62 -62 122
-118 134 -124 51 -27 26 12 -65 105 -157 160 -148 146 -151 226 -1 21 -17 22
-25 1z"/>
<path d="M4497 2502 c-2 -4 -2 -13 -1 -19 1 -7 2 -17 3 -22 2 -17 100 -134
181 -217 52 -52 92 -84 115 -91 20 -7 35 -7 33 -2 -2 5 -68 74 -147 154 -104
106 -143 152 -143 169 0 23 -33 44 -41 28z"/>
<path d="M4560 2482 c0 -10 78 -94 173 -189 147 -146 183 -176 247 -208 70
-36 81 -38 180 -41 58 -1 112 -3 121 -3 12 -1 196 -176 248 -236 1 -2 4 -48 6
-102 1 -54 5 -105 9 -113 15 -34 56 -52 117 -51 32 0 63 2 68 5 8 5 -1 72 -11
81 -1 2 -19 4 -38 6 -58 5 -60 10 -60 136 0 133 -7 154 -51 149 -33 -4 -53 10
-144 97 -27 27 -61 53 -75 59 -14 5 -78 11 -142 13 -96 2 -125 7 -162 25 -30
14 -109 84 -226 201 -100 98 -184 179 -188 180 -64 8 -72 7 -72 -9z"/>
<path d="M967 2481 c-15 -6 9 -35 136 -161 136 -136 161 -157 204 -169 97 -27
90 -26 73 -5 -8 10 -19 22 -23 25 -4 3 -78 75 -163 159 -157 157 -176 169
-227 151z"/>
<path d="M1096 2468 c25 -28 263 -261 333 -326 30 -27 69 -58 85 -67 17 -10
-66 80 -184 199 -131 131 -222 216 -234 216 -19 0 -19 0 0 -22z"/>
<path d="M861 2461 c-7 -5 43 -61 133 -149 124 -122 148 -142 175 -142 27 0
30 3 22 18 -5 9 -68 75 -140 146 -125 124 -159 146 -190 127z"/>
<path d="M4971 2357 c72 -73 114 -108 134 -112 102 -19 191 -26 217 -16 15 5
10 13 -31 43 -36 27 -58 36 -87 36 -86 0 -90 1 -145 57 -58 59 -92 79 -154 91
l-39 7 105 -106z"/>
<path d="M806 2442 c-5 -8 223 -242 254 -262 8 -6 22 -10 30 -10 8 0 -48 63
-125 140 -77 77 -143 140 -147 140 -4 0 -9 -4 -12 -8z"/>
<path d="M735 2419 c-9 -13 237 -259 258 -259 9 0 18 4 21 8 6 10 -246 262
-262 262 -6 0 -14 -5 -17 -11z"/>
<path d="M680 2400 c-21 -13 228 -260 253 -251 14 5 -6 30 -108 131 -69 69
-127 126 -128 127 -2 1 -9 -2 -17 -7z"/>
<path d="M631 2363 c25 -34 224 -233 232 -233 4 0 3 8 -2 18 -15 27 -220 232
-232 232 -8 0 -7 -6 2 -17z"/>
<path d="M583 2353 c-7 -3 -13 -9 -13 -15 0 -20 218 -228 240 -228 11 0 20 3
20 8 0 16 -236 240 -247 235z"/>
<path d="M513 2309 c-8 -8 22 -43 104 -125 99 -100 116 -113 133 -104 11 6 20
13 20 16 0 10 -225 224 -235 224 -6 0 -16 -5 -22 -11z"/>
<path d="M456 2272 c-6 -10 209 -227 224 -226 5 1 15 2 21 3 13 1 -214 231
-229 231 -6 0 -13 -4 -16 -8z"/>
<path d="M416 2238 c-16 -9 -7 -22 94 -123 102 -102 140 -127 140 -93 0 6 -48
59 -107 119 -93 93 -111 107 -127 97z"/>
<path d="M365 2200 c-9 -15 22 -54 123 -154 82 -80 112 -98 112 -63 0 12 -212
227 -223 227 -3 0 -9 -5 -12 -10z"/>
<path d="M300 2133 c-57 -63 -61 -51 62 -172 105 -104 128 -122 128 -103 0 4
16 25 36 46 l35 40 -108 108 c-59 59 -112 108 -118 108 -5 0 -21 -12 -35 -27z"/>
<path d="M1100 2048 c0 -6 161 -171 357 -367 309 -308 358 -353 361 -332 3 20
-53 80 -340 367 -309 309 -378 370 -378 332z"/>
<path d="M4543 2030 c-30 -37 -77 -49 -133 -35 -39 10 -50 9 -84 -7 -38 -20
-39 -20 -19 -39 17 -18 36 -20 164 -23 123 -2 150 -5 184 -23 55 -29 121 -89
403 -371 134 -133 247 -240 252 -237 16 10 1 48 -32 82 -18 19 -88 90 -154
158 -172 174 -177 182 -180 263 -1 37 -2 70 -3 74 0 4 -37 43 -82 87 -88 87
-101 93 -229 95 -59 2 -67 -1 -87 -24z"/>
<path d="M1035 2029 c40 -47 762 -769 768 -769 4 0 7 8 7 18 0 25 -743 766
-772 771 l-23 3 20 -23z"/>
<path d="M1200 2043 c0 -10 602 -613 612 -613 25 0 -40 73 -297 330 -256 257
-315 310 -315 283z"/>
<path d="M206 2015 c-11 -16 -12 -25 -5 -25 7 0 60 -47 119 -105 105 -104 107
-105 125 -85 18 19 16 22 -92 130 -61 60 -115 110 -120 110 -6 0 -18 -11 -27
-25z"/>
<path d="M960 2035 c0 -11 822 -835 833 -835 4 0 7 4 7 9 0 14 -710 722 -818
815 -12 11 -22 15 -22 11z"/>
<path d="M1528 1778 c143 -144 263 -260 266 -257 3 3 1 23 -5 45 -9 31 -50 78
-212 241 -164 165 -210 205 -246 218 -24 8 -49 15 -55 15 -5 0 108 -118 252
-262z"/>
<path d="M906 2021 c-12 -18 8 -41 149 -178 100 -97 157 -145 187 -156 39 -16
29 -3 -127 153 -174 175 -199 197 -209 181z"/>
<path d="M5130 2020 l-35 -5 28 -19 c17 -12 49 -20 80 -22 29 -1 55 -2 58 -3
4 -1 48 -41 98 -90 l92 -90 1 -88 c0 -106 8 -142 39 -177 44 -50 220 -86 249
-51 18 21 6 29 -43 31 -77 3 -125 15 -145 37 -31 35 -37 61 -41 213 -1 26 -16
48 -77 110 -42 44 -93 96 -113 116 -20 21 -43 38 -51 39 -81 3 -110 3 -140 -1z"/>
<path d="M4894 1955 c36 -36 67 -69 67 -73 1 -4 3 -38 5 -75 2 -57 8 -75 31
-105 39 -51 313 -326 314 -316 5 35 2 58 -17 137 -2 9 -6 25 -8 35 -7 27 -25
73 -53 130 -20 40 -30 51 -42 46 -36 -15 -62 -15 -85 -1 -33 22 -41 61 -19 98
l18 30 -35 30 c-44 37 -86 60 -94 52 -3 -4 -23 7 -44 24 -96 77 -120 69 -38
-12z"/>
<path d="M2236 1961 c36 -67 170 -206 242 -249 28 -18 52 -28 52 -24 0 6 -285
296 -317 322 -3 3 7 -20 23 -49z"/>
<path d="M838 1989 c-15 -8 2 -30 123 -149 130 -130 179 -164 179 -127 0 13
-260 279 -277 284 -4 1 -16 -2 -25 -8z"/>
<path d="M173 1963 c-22 -8 -14 -23 13 -23 15 0 24 5 22 12 -5 14 -18 18 -35
11z"/>
<path d="M778 1959 c-12 -7 13 -37 114 -138 83 -84 134 -128 144 -124 8 3 14
7 14 10 0 3 -58 63 -129 133 -96 96 -132 125 -143 119z"/>
<path d="M1495 1931 c52 -55 108 -112 180 -181 42 -40 54 -48 44 -28 -34 67
-148 181 -229 230 l-35 21 40 -42z"/>
<path d="M4248 1946 c-16 -12 -14 -16 21 -50 l38 -37 146 -2 c81 -2 151 -7
156 -12 6 -7 -34 -9 -112 -8 -67 1 -142 2 -166 2 -38 1 -49 7 -82 41 -29 30
-40 36 -48 26 -13 -16 62 -92 101 -101 15 -4 90 -8 167 -8 l140 -2 48 -46 c43
-42 133 -97 133 -81 0 4 -35 42 -77 86 -59 60 -70 74 -44 60 18 -11 167 -150
330 -311 176 -173 299 -287 303 -280 4 6 2 19 -3 29 -12 22 -461 474 -551 554
-101 90 -120 97 -287 101 -138 3 -146 4 -170 27 -22 21 -29 23 -43 12z"/>
<path d="M5195 1941 c-2 -2 14 -22 35 -45 22 -22 40 -46 40 -53 0 -6 4 -13 8
-15 14 -6 68 -102 96 -171 35 -88 54 -190 55 -291 0 -45 0 -86 0 -91 1 -6 17
-28 37 -50 19 -22 40 -51 46 -65 6 -15 11 -111 12 -238 1 -116 6 -213 10 -215
5 -1 14 7 20 18 6 11 14 22 17 25 17 13 99 183 122 252 l25 77 -35 22 c-72 44
-94 131 -51 195 25 37 67 64 97 64 17 0 21 6 21 35 0 19 -3 36 -7 36 -5 1 -43
3 -85 5 -123 4 -195 48 -214 130 -3 16 -8 71 -10 122 l-3 94 -85 82 c-70 68
-90 82 -116 81 -17 0 -33 -2 -35 -4z"/>
<path d="M728 1926 c-15 -11 -3 -26 107 -136 87 -86 128 -121 139 -117 9 4 16
10 16 14 0 4 -55 63 -123 130 -106 106 -124 120 -139 109z"/>
<path d="M3620 1920 c0 -7 -14 -31 -31 -55 -24 -34 -29 -47 -21 -61 6 -11 67
-75 136 -143 82 -82 127 -120 130 -110 2 8 9 28 14 45 9 29 6 34 -99 142 -96
98 -109 116 -109 146 0 19 -4 38 -10 41 -5 3 -10 1 -10 -5z"/>
<path d="M129 1894 c-9 -11 -8 -14 7 -15 11 -1 22 -1 25 -1 3 1 50 -44 105
-99 54 -54 104 -99 110 -99 6 0 14 9 17 20 8 32 -44 90 -141 156 -67 45 -107
57 -123 38z"/>
<path d="M672 1885 c-6 -12 21 -44 115 -137 104 -103 124 -119 137 -108 14 11
1 28 -97 127 -125 128 -142 141 -155 118z"/>
<path d="M4146 1865 c-17 -13 -15 -18 39 -72 l56 -58 169 -1 c116 0 173 -4
183 -13 17 -14 57 -23 57 -13 0 4 -12 20 -26 36 -26 29 -26 29 -157 32 -73 1
-146 2 -164 3 -23 1 -46 14 -85 50 -48 44 -56 48 -72 36z"/>
<path d="M123 1850 c-13 -5 -23 -14 -23 -20 0 -5 0 -13 0 -17 0 -4 11 -8 26
-9 18 -1 54 -29 124 -99 89 -89 99 -96 108 -78 10 17 -3 33 -95 126 -59 59
-109 107 -112 106 -3 0 -16 -4 -28 -9z"/>
<path d="M614 1828 c-60 -70 -61 -58 4 -124 l59 -59 2 -78 2 -78 49 -49 49
-49 15 52 c8 28 14 52 13 52 -1 0 -19 8 -39 18 -31 13 -38 22 -38 45 0 62 64
88 102 42 19 -23 19 -23 39 -4 20 20 19 21 -100 137 -66 64 -123 117 -128 117
-5 0 -18 -10 -29 -22z"/>
<path d="M4095 1810 c-12 -19 79 -110 121 -121 45 -13 258 -9 309 5 59 17 60
17 -125 20 -80 2 -152 4 -161 5 -8 0 -39 24 -67 51 -53 51 -66 58 -77 40z"/>
<path d="M77 1773 c-12 -11 -8 -23 7 -23 8 0 64 -49 126 -110 62 -60 116 -110
121 -110 5 0 9 10 9 23 0 23 -155 193 -197 215 -24 13 -56 16 -66 5z"/>
<path d="M1830 1762 c0 -5 8 -20 19 -33 18 -22 26 -23 152 -25 74 -1 144 -2
156 -3 12 -1 53 -33 99 -78 l77 -78 3 -240 c2 -132 3 -244 4 -249 0 -5 7 -3
15 4 13 11 15 45 15 220 -1 114 -6 227 -12 250 -8 31 -30 62 -76 112 -94 99
-100 102 -275 104 -99 1 -152 6 -162 14 -9 7 -15 8 -15 2z"/>
<path d="M4051 1756 c-9 -11 3 -27 60 -80 74 -69 146 -102 200 -92 13 3 29 5
35 5 6 1 28 14 49 31 40 32 36 38 -25 38 -158 -1 -181 3 -224 41 -23 20 -43
39 -44 44 -9 18 -40 26 -51 13z"/>
<path d="M3500 1751 c0 -11 301 -311 312 -311 4 0 8 12 8 27 0 21 -23 49 -103
127 -56 56 -120 116 -142 133 -38 31 -75 43 -75 24z"/>
<path d="M55 1720 c-8 -13 -45 -174 -45 -197 0 -12 8 -29 17 -39 15 -15 18
-42 19 -200 l2 -183 167 -167 168 -168 2 -126 c1 -121 7 -156 24 -145 11 6 6
345 -5 372 -5 12 -38 51 -73 87 -49 51 -70 66 -92 66 -32 0 -69 31 -69 58 0
29 29 62 56 62 31 0 66 -35 64 -63 -4 -39 -1 -44 63 -112 34 -37 66 -77 71
-89 5 -11 10 -106 12 -211 2 -104 6 -195 8 -202 7 -16 78 -51 94 -46 29 11 64
-8 78 -42 10 -24 21 -35 35 -35 21 0 21 2 16 148 -8 206 -8 204 -96 292 -85
83 -138 158 -183 257 -29 66 -128 183 -153 183 -7 0 -18 -7 -25 -16 -31 -37
-107 15 -94 64 4 12 18 29 33 36 22 12 30 12 53 0 15 -8 29 -22 32 -32 3 -10
29 -40 57 -67 l51 -50 -6 40 c-4 22 -16 48 -27 57 -16 13 -22 32 -24 73 -1 31
-4 58 -7 60 -2 2 -19 7 -38 10 -19 3 -39 10 -43 14 -15 15 -15 45 0 74 16 31
61 37 87 11 20 -19 18 -11 21 -114 4 -103 3 -100 13 -100 11 0 5 181 -7 214
-6 15 -55 72 -109 125 -90 90 -135 121 -147 101z"/>
<path d="M529 1709 c-9 -19 -6 -27 31 -64 40 -41 43 -47 47 -111 4 -78 11 -90
113 -189 l72 -70 -6 40 c-3 22 -5 41 -6 42 0 1 -27 29 -59 62 l-60 59 -5 82
c-4 70 -9 85 -27 98 -12 8 -33 28 -47 43 -30 35 -38 36 -53 8z"/>
<path d="M3423 1681 c-24 -21 -43 -43 -43 -48 0 -9 438 -453 447 -453 4 0 -3
73 -13 135 -5 29 -52 98 -117 172 -49 55 -223 233 -228 233 -2 -1 -23 -18 -46
-39z"/>
<path d="M4000 1668 c-11 -23 -20 -46 -20 -52 0 -5 31 -40 68 -76 66 -65 69
-66 117 -64 28 1 69 2 91 3 38 1 44 5 62 40 11 21 18 42 15 45 -4 3 -40 6 -82
6 l-76 1 -70 69 c-38 39 -73 70 -77 70 -4 0 -17 -19 -28 -42z"/>
<path d="M1875 1682 c-2 -2 2 -21 10 -41 7 -20 21 -61 29 -91 14 -49 29 -68
140 -180 68 -69 132 -130 142 -136 32 -19 57 -84 61 -164 2 -41 7 -77 9 -80 3
-3 14 5 23 17 16 19 18 46 16 255 -1 153 -6 243 -13 261 -19 46 -120 145 -155
153 -34 8 -255 13 -262 6z m265 -102 c10 -5 21 -21 24 -35 17 -68 -83 -104
-112 -39 -16 34 -15 41 8 64 22 22 51 26 80 10z"/>
<path d="M477 1602 c-3 -15 -1 -32 3 -37 5 -6 10 -37 11 -70 1 -33 5 -69 10
-80 4 -11 147 -159 318 -330 l311 -310 0 -47 c0 -45 12 -69 25 -48 12 20 12
96 -1 120 -7 14 -148 160 -314 325 l-300 300 0 54 c0 67 -18 129 -41 141 -13
8 -18 4 -22 -18z"/>
<path d="M3292 1590 c-29 -16 -73 -36 -98 -46 -24 -9 -46 -20 -49 -24 -2 -3
35 -7 83 -8 121 -2 155 -9 204 -44 24 -17 132 -119 241 -227 109 -108 200
-198 203 -201 4 -3 -1 13 -10 35 -12 28 -91 114 -269 292 l-252 252 -53 -29z"/>
<path d="M564 1523 c1 -38 7 -76 12 -86 10 -18 192 -205 249 -257 l28 -25 -13
24 c-6 13 -60 72 -118 132 -130 135 -134 141 -134 192 0 55 -6 87 -18 87 -5 0
-8 -30 -6 -67z"/>
<path d="M2462 1360 c0 -121 4 -223 9 -225 4 -3 19 0 33 6 19 9 26 20 26 41 0
33 32 69 57 65 10 -2 36 -9 58 -15 48 -13 155 -21 179 -13 13 5 6 17 -41 64
-64 64 -92 76 -137 58 -56 -23 -76 -24 -96 -6 -26 23 -25 60 0 85 28 28 62 25
93 -9 21 -24 32 -29 57 -25 28 5 40 -3 119 -81 l88 -86 59 -2 59 -2 3 57 c2
32 9 61 17 68 7 6 37 11 67 11 184 2 181 4 183 -123 1 -52 5 -100 9 -106 4 -6
37 -32 74 -56 69 -47 144 -114 199 -178 l32 -37 6 27 c14 66 115 62 115 -5 0
-43 -18 -63 -55 -63 -19 0 -35 -4 -35 -8 0 -16 129 -180 192 -245 85 -87 108
-101 141 -86 53 24 104 -16 90 -70 -5 -18 6 -26 80 -60 98 -46 192 -75 207
-66 7 4 10 40 9 93 l-3 87 -493 494 -493 494 -295 2 -295 2 -28 25 c-15 14
-45 28 -67 32 -54 9 -45 6 -157 52 -32 13 -60 24 -62 24 -3 0 -5 -99 -4 -220z
m1759 -891 c11 -5 17 -14 14 -19 -3 -5 -1 -11 4 -15 12 -7 4 -33 -17 -57 -21
-25 -67 -23 -86 4 -21 30 -20 54 4 78 22 22 51 26 81 9z"/>
<path d="M457 1536 c-9 -23 -20 -113 -21 -173 l-1 -42 324 -325 c178 -179 328
-323 332 -320 5 3 9 26 9 52 l0 46 -291 292 c-161 161 -301 307 -313 325 -14
22 -23 57 -26 99 -3 45 -7 59 -13 46z"/>
<path d="M4937 1498 c14 -38 49 -79 175 -205 127 -126 160 -155 168 -143 5 8
10 17 10 20 0 3 -83 88 -185 190 -179 178 -185 183 -168 138z"/>
<path d="M3944 1498 c-4 -18 -9 -39 -10 -46 -1 -8 13 -31 33 -52 85 -95 324
-114 311 -26 -3 18 -11 21 -68 23 -115 5 -129 10 -196 74 l-62 60 -8 -33z"/>
<path d="M1450 1481 c12 -42 14 -44 183 -216 110 -112 139 -137 147 -125 5 8
10 17 10 20 0 3 -79 84 -175 180 -149 148 -174 170 -165 141z"/>
<path d="M1 1355 c0 -66 3 -126 8 -134 11 -17 11 206 0 234 -4 12 -8 -29 -8
-100z"/>
<path d="M1934 1403 c6 -31 28 -58 123 -153 129 -128 121 -110 123 -277 0 -35
3 -63 8 -63 4 0 16 13 27 28 26 36 30 162 6 207 -18 34 -269 295 -284 295 -5
0 -6 -16 -3 -37z"/>
<path d="M4965 1368 c3 -13 68 -86 144 -162 115 -115 141 -137 147 -122 5 14
-25 50 -137 162 -79 79 -147 144 -151 144 -4 0 -5 -10 -3 -22z"/>
<path d="M3930 1342 c0 -65 87 -97 275 -101 84 -2 101 3 85 29 -7 11 -39 15
-130 17 -129 3 -165 14 -200 62 -20 29 -30 26 -30 -7z"/>
<path d="M1470 1345 c0 -24 270 -289 282 -277 20 20 -3 59 -75 128 -163 154
-207 186 -207 149z"/>
<path d="M1930 1328 c0 -9 39 -58 88 -109 48 -50 93 -103 101 -118 10 -18 14
-61 15 -138 0 -79 3 -110 11 -102 6 6 10 61 10 135 l0 124 -113 113 c-68 68
-112 105 -112 95z"/>
<path d="M4960 1289 c0 -23 235 -269 256 -269 37 0 11 38 -110 159 -72 72
-135 131 -139 131 -4 0 -7 -10 -7 -21z"/>
<path d="M1466 1283 c-15 -16 2 -38 120 -156 115 -114 144 -136 144 -106 0 15
-256 270 -264 262z"/>
<path d="M444 1256 c3 -16 6 -30 8 -32 2 -2 73 -74 159 -161 196 -199 199
-203 199 -264 0 -58 11 -67 117 -99 140 -42 139 -41 -187 285 -241 241 -300
294 -296 271z"/>
<path d="M1929 1260 c0 -3 -2 -13 -4 -23 -2 -11 19 -42 54 -80 32 -34 63 -72
69 -83 7 -13 12 -85 13 -178 1 -86 3 -156 4 -156 2 0 13 16 26 36 20 33 22 49
22 158 -1 90 -5 130 -16 152 -14 27 -166 184 -168 174z"/>
<path d="M3946 1215 c50 -212 179 -375 371 -474 54 -27 59 -27 39 4 -9 14 -14
25 -10 25 4 0 2 6 -4 13 -26 31 19 129 66 145 66 22 128 0 160 -57 34 -61 9
-136 -58 -168 l-35 -17 49 -7 c49 -8 51 -7 83 29 17 20 33 42 33 47 1 6 2 37
3 70 l2 60 -80 80 c-44 44 -98 92 -121 106 -39 26 -73 59 -112 108 -19 24 -22
25 -186 26 -147 2 -168 4 -187 21 -20 18 -20 18 -13 -11z"/>
<path d="M4928 1208 l-16 -33 114 -117 c63 -64 113 -122 112 -129 -2 -6 2 -13
7 -15 11 -4 58 63 53 77 -4 12 -239 249 -248 249 -3 0 -13 -15 -22 -32z"/>
<path d="M1439 1220 c-1 -5 -2 -14 -3 -20 -1 -11 233 -250 245 -250 4 0 10 7
13 16 4 11 -27 50 -106 131 -115 116 -147 142 -149 123z"/>
<path d="M5410 1195 c0 -14 4 -25 10 -25 5 0 17 -14 25 -30 13 -25 16 -74 17
-271 1 -132 5 -242 9 -245 5 -2 14 6 20 18 14 25 18 424 6 489 -8 38 -50 89
-73 89 -8 0 -14 -11 -14 -25z"/>
<path d="M1404 1156 c-4 -19 -2 -31 10 -39 13 -10 16 -40 18 -194 l2 -182 28
15 c15 8 28 23 28 33 0 24 29 46 65 49 28 3 105 68 105 89 0 4 -56 64 -125
132 -120 119 -124 123 -131 97z"/>
<path d="M1910 1164 c0 -9 13 -29 29 -45 59 -56 58 -50 60 -291 0 -93 5 -168
9 -168 5 0 14 11 20 25 16 34 16 348 1 378 -13 26 -100 117 -111 117 -4 0 -8
-7 -8 -16z"/>
<path d="M473 1140 c4 -14 66 -85 145 -164 112 -113 138 -144 140 -169 3 -39
18 -55 34 -39 9 9 6 23 -11 59 -28 60 -317 353 -308 313z"/>
<path d="M4871 1126 l-22 -23 72 -72 72 -72 0 -84 c0 -47 5 -85 10 -85 5 0 23
10 40 22 68 47 86 81 64 121 -14 25 -197 217 -207 217 -4 0 -16 -11 -29 -24z"/>
<path d="M5397 1131 c-3 -11 -2 -23 2 -26 9 -9 8 0 10 -287 1 -163 5 -257 11
-248 29 50 33 524 5 570 -10 16 -22 12 -28 -9z"/>
<path d="M1329 1083 c-18 -21 -37 -37 -41 -35 -8 2 -119 -27 -126 -33 -2 -2
28 -35 67 -74 l71 -71 0 -85 c0 -46 4 -86 8 -89 5 -3 18 1 30 9 19 14 20 23
18 133 -2 98 -6 126 -24 162 -12 24 -19 46 -17 49 3 2 18 -8 34 -23 28 -27 28
-27 29 -163 1 -136 5 -160 22 -133 15 23 13 363 -2 378 -20 20 -34 14 -69 -25z"/>
<path d="M1890 1105 c0 -2 14 -21 32 -41 l32 -36 2 -187 c3 -245 2 -237 14
-225 13 13 19 191 9 285 -13 123 -20 148 -46 179 -22 27 -43 39 -43 25z"/>
<path d="M44 1045 c10 -51 24 -69 144 -191 126 -128 133 -139 134 -211 1 -58
14 -103 30 -103 4 0 8 6 9 13 1 19 1 181 0 194 -1 6 -74 85 -163 174 -157 159
-161 162 -154 124z"/>
<path d="M955 1050 c17 -18 66 -69 110 -114 112 -112 126 -135 127 -198 0 -60
3 -69 22 -62 9 4 13 18 11 42 -2 20 -4 42 -4 49 -3 47 -187 255 -262 297 l-34
19 30 -33z"/>
<path d="M1877 1063 c-3 -6 -1 -328 2 -505 1 -16 5 -28 9 -28 14 0 41 56 47
96 7 52 7 194 0 274 -9 108 -41 196 -58 163z"/>
<path d="M4767 1054 c-3 -3 -21 -11 -41 -18 l-35 -12 45 -47 44 -47 0 -121 0
-121 25 6 c47 12 70 24 95 51 22 23 25 37 27 105 l2 78 -65 66 c-60 61 -82 75
-97 60z"/>
<path d="M5357 1024 c-16 -36 -19 -71 -20 -283 -1 -207 -3 -243 -16 -251 -9
-5 -13 -11 -11 -14 3 -3 19 6 35 18 l30 24 3 224 c2 122 2 245 0 273 l-3 50
-18 -41z"/>
<path d="M520 1030 c44 -86 196 -251 213 -233 13 12 -13 45 -116 148 -61 61
-104 99 -97 85z"/>
<path d="M1086 979 c27 -28 64 -59 82 -71 41 -25 73 -93 76 -164 6 -111 34
-77 34 40 l0 81 -79 77 c-49 49 -88 78 -102 79 -12 0 -31 2 -41 4 -13 2 -3
-13 30 -46z"/>
<path d="M4617 970 c55 -51 63 -69 65 -135 2 -74 -2 -92 -27 -129 l-25 -37 45
2 c25 2 50 6 56 10 8 5 10 40 7 115 -8 167 -43 224 -136 224 l-37 0 52 -50z"/>
<path d="M1814 923 c-10 -52 -10 -440 0 -450 4 -4 13 0 20 9 17 24 16 470 -1
475 -7 3 -15 -11 -19 -34z"/>
<path d="M109 873 c11 -21 51 -69 90 -108 61 -61 70 -75 71 -107 0 -20 4 -39
9 -43 16 -9 17 68 2 100 -13 28 -172 195 -185 195 -4 0 2 -17 13 -37z"/>
<path d="M5285 900 c-4 -6 -8 -84 -10 -173 -1 -89 -7 -173 -13 -187 -6 -14
-31 -45 -56 -70 -33 -32 -46 -52 -46 -72 0 -27 2 -28 23 -17 42 22 97 71 91
81 -3 5 2 18 13 30 16 18 18 40 19 219 0 183 -4 217 -21 189z"/>
<path d="M1754 853 c-4 -16 -8 -119 -9 -230 -1 -160 1 -203 11 -203 7 0 16 17
20 37 8 41 12 365 6 401 -6 30 -18 28 -28 -5z"/>
<path d="M5232 829 c-6 -15 -11 -64 -10 -110 0 -46 -1 -93 -1 -104 -1 -11 -26
-45 -56 -76 -53 -54 -54 -56 -56 -117 -1 -34 1 -65 4 -68 13 -14 27 10 27 46
0 32 7 47 40 82 66 69 71 86 73 219 2 133 -4 171 -21 128z"/>
<path d="M1697 786 c-3 -7 -6 -97 -7 -199 -1 -171 6 -218 25 -187 5 9 9 245 6
373 -1 28 -15 37 -24 13z"/>
<path d="M5166 765 c-27 -23 -31 -38 -35 -137 -1 -9 -22 -38 -48 -65 l-47 -48
-4 -102 c-3 -57 0 -103 4 -103 31 1 41 27 42 103 l1 78 60 62 c47 47 61 69 62
92 2 72 0 137 -3 140 -2 3 -16 -7 -32 -20z"/>
<path d="M1595 704 c-28 -20 -72 -47 -100 -61 -27 -14 -53 -30 -56 -35 -3 -5
-6 -81 -7 -169 -1 -173 -2 -168 57 -148 31 11 31 12 16 35 -8 13 -13 34 -11
46 3 13 5 26 5 30 1 3 15 11 33 17 47 17 87 -14 79 -61 -2 -13 26 -9 38 6 13
15 15 344 2 364 -5 8 -22 0 -56 -24z"/>
<path d="M217 694 c15 -21 29 -31 31 -24 3 7 -7 23 -21 36 -38 35 -42 29 -10
-12z"/>
<path d="M5050 677 c-25 -17 -51 -37 -58 -44 -7 -7 -20 -13 -29 -13 -23 0
-172 -51 -178 -60 -3 -5 1 -14 8 -22 33 -32 37 -53 17 -86 -38 -63 -130 -35
-130 38 0 19 9 36 27 49 l26 21 -41 -4 c-22 -2 -45 -7 -51 -10 -15 -9 -15
-227 0 -259 14 -31 57 -55 89 -51 30 5 134 22 174 29 24 5 84 31 87 38 0 1 3
36 5 77 7 116 11 132 49 175 40 44 63 84 76 127 11 38 -12 37 -71 -5z"/>
<path d="M697 673 c-6 -9 0 -266 6 -318 4 -25 15 -45 27 -45 5 0 8 76 7 170
-2 141 -5 172 -18 186 -9 9 -19 12 -22 7z"/>
<path d="M758 558 c-6 -156 2 -268 18 -268 15 0 16 17 14 185 -1 50 -3 99 -5
110 -2 11 -4 28 -4 38 -1 9 -5 17 -11 17 -5 0 -10 -37 -12 -82z"/>
<path d="M4364 550 c46 -49 66 -79 67 -98 1 -15 2 -65 4 -112 1 -47 3 -88 4
-91 0 -3 13 -6 29 -5 l27 1 3 109 3 110 -58 59 c-50 50 -116 97 -139 97 -3 0
23 -32 60 -70z"/>
<path d="M810 445 c1 -91 5 -167 9 -170 4 -2 21 -7 37 -9 52 -10 75 -15 93
-21 10 -3 29 4 44 15 30 24 47 89 49 195 1 107 6 100 -69 114 -38 8 -83 20
-102 27 -64 26 -62 31 -61 -151z m151 -25 c17 0 37 -54 28 -78 -10 -26 -53
-45 -81 -36 -26 8 -42 46 -34 79 7 26 40 47 64 39 8 -2 18 -4 23 -4z"/>
<path d="M1385 591 c-8 -14 -7 -309 1 -322 16 -27 24 27 24 174 0 143 -6 178
-25 148z"/>
<path d="M1314 572 c-7 -4 -12 -45 -13 -101 -1 -52 -3 -97 -3 -100 0 -3 0 -32
1 -63 1 -50 4 -58 20 -58 11 0 23 6 28 13 4 6 9 81 9 165 2 135 0 152 -15 152
-9 0 -21 -4 -27 -8z"/>
<path d="M4453 551 c12 -14 25 -27 30 -29 23 -11 36 -66 38 -170 2 -70 7 -112
13 -113 6 -1 22 -3 36 -5 42 -5 55 3 37 24 -12 13 -16 47 -19 151 -3 152 1
144 -95 158 l-63 9 23 -25z"/>
<path d="M1073 553 c-10 -3 -13 -38 -13 -128 0 -118 -1 -125 -26 -154 -14 -17
-22 -31 -17 -32 4 0 16 -2 25 -4 9 -2 25 6 35 17 14 16 18 42 21 148 4 127 -2
161 -25 153z"/>
<path d="M1197 553 c-4 -6 -6 -78 -5 -161 1 -116 4 -152 14 -156 22 -8 26 31
20 174 -4 121 -14 167 -29 143z"/>
<path d="M1259 533 c-16 -43 -24 -279 -10 -288 7 -4 15 -4 19 -1 7 8 13 131
12 226 -2 104 -3 108 -21 63z"/>
<path d="M1136 539 c-3 -8 -7 -70 -9 -139 -2 -69 -7 -135 -12 -148 -6 -19 -4
-22 18 -22 32 0 35 12 31 145 -3 140 -14 204 -28 164z"/>
</g>
</svg>
